<svg width="25" height="24" viewBox="0 0 25 24" fill="none" xmlns="http://www.w3.org/2000/svg">
<path fill-rule="evenodd" clip-rule="evenodd" d="M7.69145 0.000199544C6.90288 0.000199544 6.11556 0.111424 5.36698 0.362616C0.754285 1.86227 -0.907832 6.92361 0.480599 11.3476C1.26792 13.6083 2.55512 15.6716 4.24099 17.3575C6.65418 19.6944 9.30233 21.769 12.1529 23.5561L12.4654 23.7448L12.7903 23.5436C15.6509 21.769 18.314 19.6944 20.7497 17.345C22.4243 15.6591 23.7128 13.6083 24.5126 11.3476C25.9248 6.92361 24.2626 1.86227 19.6 0.336373C19.2375 0.211401 18.8639 0.123921 18.489 0.0751824H18.339C17.9878 0.0239441 17.6392 0.000199544 17.2892 0.000199544H17.1518C16.3645 0.0239441 15.6021 0.161413 14.8636 0.412605H14.7898C14.7398 0.43635 14.7023 0.462594 14.6773 0.486338C14.4012 0.575068 14.14 0.675045 13.89 0.812513L13.4151 1.02496C13.3004 1.08617 13.1716 1.17968 13.0603 1.2605C12.9897 1.3117 12.9262 1.35781 12.8778 1.38738C12.8574 1.39942 12.8366 1.41152 12.8157 1.42371C12.7086 1.48626 12.597 1.55142 12.5028 1.62358C11.1144 0.562571 9.42855 -0.0122976 7.69145 0.000199544ZM4.37275 8.99756C3.86036 8.98381 3.42296 8.57266 3.38547 8.04653V7.89781C3.34798 6.14696 4.40899 4.56107 6.02237 3.94871C6.53475 3.7725 7.09712 4.04869 7.28458 4.57357C7.45954 5.09845 7.1846 5.67332 6.65972 5.85953C5.85866 6.15946 5.32253 6.94803 5.32253 7.82158V7.86032C5.34627 8.1465 5.26004 8.42269 5.08508 8.63514C4.91012 8.84759 4.64768 8.97132 4.37275 8.99756Z" fill="#EC5655"/>
<path fill-rule="evenodd" clip-rule="evenodd" d="M17.3086 0.000199544C18.0971 0.000199544 18.8844 0.111424 19.633 0.362616C24.2457 1.86227 25.9078 6.92361 24.5194 11.3476C23.7321 13.6083 22.4449 15.6716 20.759 17.3575C18.3458 19.6944 15.6977 21.769 12.8471 23.5561L12.5346 23.7448L12.2097 23.5436C9.34913 21.769 6.68599 19.6944 4.2503 17.345C2.57568 15.6591 1.28723 13.6083 0.487409 11.3476C-0.924767 6.92361 0.737352 1.86227 5.40003 0.336373C5.76245 0.211401 6.13611 0.123921 6.51103 0.0751824H6.66099C7.01216 0.0239441 7.36083 0.000199544 7.71075 0.000199544H7.84822C8.63554 0.0239441 9.39786 0.161413 10.1364 0.412605H10.2102C10.2602 0.43635 10.2977 0.462594 10.3227 0.486338C10.5988 0.575068 10.86 0.675045 11.11 0.812513L11.5849 1.02496C11.6996 1.08617 11.8284 1.17968 11.9397 1.2605C12.0103 1.31171 12.0738 1.35782 12.1222 1.38738C12.1426 1.39941 12.1634 1.41151 12.1843 1.42371C12.2914 1.48626 12.403 1.55142 12.4972 1.62358C13.8856 0.562571 15.5714 -0.0122976 17.3086 0.000199544ZM20.6273 8.99756C21.1396 8.98381 21.577 8.57266 21.6145 8.04653V7.89781C21.652 6.14696 20.591 4.56107 18.9776 3.94871C18.4652 3.7725 17.9029 4.04869 17.7154 4.57357C17.5405 5.09845 17.8154 5.67332 18.3403 5.85953C19.1413 6.15946 19.6775 6.94803 19.6775 7.82158V7.86032C19.6537 8.1465 19.74 8.42269 19.9149 8.63514C20.0899 8.84759 20.3523 8.97132 20.6273 8.99756Z" fill="#EC5655"/>
</svg>
