<svg width="20" height="20" viewBox="0 0 20 20" fill="none" xmlns="http://www.w3.org/2000/svg">
<path d="M11.3867 4.1886V6.00322" stroke="#B8B8B8" stroke-width="1.34971" stroke-linecap="round" stroke-linejoin="round"/>
<path d="M11.3867 14.3186V15.8363" stroke="#B8B8B8" stroke-width="1.34971" stroke-linecap="round" stroke-linejoin="round"/>
<path d="M11.3867 11.7412V8.12622" stroke="#B8B8B8" stroke-width="1.34971" stroke-linecap="round" stroke-linejoin="round"/>
<path fill-rule="evenodd" clip-rule="evenodd" d="M15.0272 15.9986C16.3935 15.9986 17.5001 14.9057 17.5001 13.5564V11.6125C16.5961 11.6125 15.868 10.8934 15.868 10.0006C15.868 9.10778 16.5961 8.38796 17.5001 8.38796L17.4993 6.44322C17.4993 5.09395 16.3919 4.0011 15.0265 4.0011H4.97696C3.61148 4.0011 2.50408 5.09395 2.50408 6.44322L2.5033 8.4513C3.40736 8.4513 4.13546 9.10778 4.13546 10.0006C4.13546 10.8934 3.40736 11.6125 2.5033 11.6125V13.5564C2.5033 14.9057 3.60991 15.9986 4.97618 15.9986H15.0272Z" stroke="#B8B8B8" stroke-width="1.34971" stroke-linecap="round" stroke-linejoin="round"/>
</svg>
