<svg width="20" height="20" viewBox="0 0 20 20" fill="none" xmlns="http://www.w3.org/2000/svg">
<mask id="mask0_114_106" style="mask-type:luminance" maskUnits="userSpaceOnUse" x="3" y="3" width="15" height="15">
<path fill-rule="evenodd" clip-rule="evenodd" d="M3 3.76746H17.3964V17.4806H3V3.76746Z" fill="white"/>
</mask>
<g mask="url(#mask0_114_106)">
<path fill-rule="evenodd" clip-rule="evenodd" d="M4.2839 10.1815C5.26979 13.2489 9.16484 15.7291 10.2 16.343C11.2386 15.7227 15.1618 13.2151 16.116 10.1843C16.7426 8.22518 16.161 5.74357 13.8503 4.99888C12.7308 4.63954 11.4249 4.85823 10.5234 5.55581C10.335 5.70067 10.0734 5.70349 9.88352 5.56003C8.92857 4.84206 7.68108 4.6318 6.544 4.99888C4.23679 5.74287 3.65734 8.22447 4.2839 10.1815ZM10.1994 17.48C10.1122 17.48 10.0257 17.4589 9.94693 17.416C9.72683 17.2958 4.5421 14.4379 3.27844 10.5042C3.27774 10.5042 3.27774 10.5035 3.27774 10.5035C2.48452 8.02682 3.36775 4.91444 6.21924 3.99535C7.55814 3.56217 9.01729 3.75274 10.1973 4.49744C11.3407 3.77454 12.8596 3.57483 14.1718 3.99535C17.0261 4.91584 17.9121 8.02752 17.1196 10.5035C15.8967 14.3922 10.674 17.2929 10.4525 17.4146C10.3738 17.4582 10.2866 17.48 10.1994 17.48Z" fill="#B8B8B8"/>
</g>
<path fill-rule="evenodd" clip-rule="evenodd" d="M14.3584 9.12957C14.0862 9.12957 13.8556 8.92072 13.8331 8.64506C13.7867 8.06703 13.3999 7.57901 12.8493 7.40109C12.5715 7.31108 12.4197 7.01363 12.509 6.73727C12.5997 6.46021 12.8943 6.30972 13.1728 6.39692C14.1313 6.70703 14.8028 7.5558 14.8851 8.55927C14.9083 8.8497 14.6924 9.10426 14.402 9.12746C14.3872 9.12887 14.3732 9.12957 14.3584 9.12957Z" fill="#B8B8B8"/>
</svg>
