<svg width="11" height="11" viewBox="0 0 11 11" fill="none" xmlns="http://www.w3.org/2000/svg">
<path d="M8.64042 0.159586C8.31097 0.0490373 7.96447 8.78188e-05 7.61743 8.78188e-05C6.85294 -0.00541212 6.11099 0.247585 5.49995 0.71453C5.45045 0.676581 5.38995 0.643031 5.33495 0.610581C5.27995 0.577032 5.18095 0.495083 5.09846 0.451083L4.88946 0.357584C4.77946 0.297085 4.66451 0.253085 4.54296 0.214036C4.53196 0.203586 4.51546 0.192036 4.49346 0.181586H4.46101C4.13597 0.0710371 3.80047 0.0105377 3.45397 8.78188e-05H3.39347C3.23947 8.78188e-05 3.08603 0.0105377 2.93148 0.0330875H2.86548C2.70048 0.0545373 2.53603 0.0930369 2.37653 0.148036C0.324506 0.819579 -0.406987 3.04706 0.214507 4.99404C0.566503 5.98898 1.13355 6.89152 1.87054 7.63346C2.94248 8.66745 4.11452 9.58044 5.37345 10.3614L5.51645 10.45L5.65395 10.3669C6.90849 9.58044 8.07392 8.66745 9.13596 7.63896C9.8779 6.89702 10.4444 5.98898 10.7909 4.99404C11.4019 3.04706 10.6704 0.819579 8.64042 0.159586Z" fill="#EC5655"/>
</svg>
