<svg width="32" height="32" viewBox="0 0 32 32" fill="none" xmlns="http://www.w3.org/2000/svg">
<g clip-path="url(#clip0_114_157)">
<path d="M15.9999 20.3333C18.0249 20.3333 19.6666 21.9749 19.6666 24C19.6666 26.025 18.0249 27.6666 15.9999 27.6666C13.9749 27.6666 12.3332 26.025 12.3332 24C12.3332 21.9749 13.9749 20.3333 15.9999 20.3333ZM15.9999 22.3333C15.0794 22.3333 14.3332 23.0795 14.3332 24C14.3332 24.9204 15.0794 25.6666 15.9999 25.6666C16.9204 25.6666 17.6666 24.9204 17.6666 24C17.6666 23.0795 16.9204 22.3333 15.9999 22.3333ZM16 15.0001C19.5168 15.0001 22.5625 17.0172 24.0432 19.9576L22.5289 21.4703C21.5147 18.8546 18.9739 17.0001 16 17.0001C13.0261 17.0001 10.4853 18.8546 9.47109 21.4703L7.95727 19.9566C9.43819 17.0167 12.4836 15.0001 16 15.0001ZM16.0001 9.66685C20.9806 9.66685 25.3677 12.2071 27.9367 16.0626L26.4896 17.51C24.3149 14.0027 20.4303 11.6669 16.0001 11.6669C11.5699 11.6669 7.68528 14.0027 5.51061 17.51L4.06351 16.0626C6.63246 12.2071 11.0196 9.66685 16.0001 9.66685ZM15.9999 4.33325C22.451 4.33325 28.1766 7.43929 31.7628 12.2375L30.3323 13.6684C27.1237 9.22502 21.8995 6.33325 15.9999 6.33325C10.1008 6.33325 4.87692 9.22459 1.66821 13.6674L0.237732 12.2365C3.82403 7.43886 9.54929 4.33325 15.9999 4.33325Z" fill="#B8B8B8"/>
</g>
<defs>
<clipPath id="clip0_114_157">
<rect width="32" height="32" fill="white"/>
</clipPath>
</defs>
</svg>
